<svg width="88" height="88" viewBox="0 0 88 88" fill="none" xmlns="http://www.w3.org/2000/svg">
<g filter="url(#filter0_d_10_55)">
<g clip-path="url(#clip0_10_55)">
<path d="M53.6 35.1227L49.9935 53.9508C49.9935 53.9508 49.4889 55.2562 48.1027 54.6301L39.7815 48.0231L39.7429 48.0036C40.8669 46.9585 49.5829 38.8432 49.9638 38.4754C50.5535 37.9057 50.1874 37.5665 49.5027 37.9969L36.6281 46.4636L31.6612 44.7329C31.6612 44.7329 30.8795 44.445 30.8043 43.819C30.7281 43.1919 31.6869 42.8527 31.6869 42.8527L51.9358 34.6268C51.9358 34.6268 53.6 33.8695 53.6 35.1227V35.1227Z" fill="#27A6E5"/>
</g>
</g>
<defs>
<filter id="filter0_d_10_55" x="0" y="0" width="88" height="88" filterUnits="userSpaceOnUse" color-interpolation-filters="sRGB">
<feFlood flood-opacity="0" result="BackgroundImageFix"/>
<feColorMatrix in="SourceAlpha" type="matrix" values="0 0 0 0 0 0 0 0 0 0 0 0 0 0 0 0 0 0 127 0" result="hardAlpha"/>
<feOffset/>
<feGaussianBlur stdDeviation="10"/>
<feComposite in2="hardAlpha" operator="out"/>
<feColorMatrix type="matrix" values="0 0 0 0 0.05 0 0 0 0 0.25 0 0 0 0 0.25 0 0 0 0.1 0"/>
<feBlend mode="normal" in2="BackgroundImageFix" result="effect1_dropShadow_10_55"/>
<feBlend mode="normal" in="SourceGraphic" in2="effect1_dropShadow_10_55" result="shape"/>
</filter>
<clipPath id="clip0_10_55">
<rect x="20" y="20" width="48" height="48" rx="4" fill="white"/>
</clipPath>
</defs>
</svg>
