<svg width="88" height="88" viewBox="0 0 88 88" fill="none" xmlns="http://www.w3.org/2000/svg">
<g filter="url(#filter0_d_10_54)">
<g clip-path="url(#clip0_10_54)">
<path d="M45.179 52.4C36.1592 52.4 31.0144 46.0937 30.8 35.6H35.3182C35.4666 43.3021 38.7975 46.5645 41.4359 47.2372V35.6H45.6902V42.2426C48.2956 41.9567 51.0329 38.9297 51.9563 35.6H56.2106C55.8627 37.3269 55.169 38.962 54.1731 40.403C53.1772 41.844 51.9005 43.0599 50.4227 43.9747C52.0722 44.8106 53.5292 45.9938 54.6974 47.4461C55.8656 48.8984 56.7186 50.5868 57.2 52.4H52.5169C52.0848 50.8251 51.2065 49.4153 49.9921 48.3474C48.7777 47.2794 47.2812 46.6007 45.6902 46.3964V52.4H45.179V52.4Z" fill="#0077FF"/>
</g>
</g>
<defs>
<filter id="filter0_d_10_54" x="0" y="0" width="88" height="88" filterUnits="userSpaceOnUse" color-interpolation-filters="sRGB">
<feFlood flood-opacity="0" result="BackgroundImageFix"/>
<feColorMatrix in="SourceAlpha" type="matrix" values="0 0 0 0 0 0 0 0 0 0 0 0 0 0 0 0 0 0 127 0" result="hardAlpha"/>
<feOffset/>
<feGaussianBlur stdDeviation="10"/>
<feComposite in2="hardAlpha" operator="out"/>
<feColorMatrix type="matrix" values="0 0 0 0 0.05 0 0 0 0 0.25 0 0 0 0 0.25 0 0 0 0.1 0"/>
<feBlend mode="normal" in2="BackgroundImageFix" result="effect1_dropShadow_10_54"/>
<feBlend mode="normal" in="SourceGraphic" in2="effect1_dropShadow_10_54" result="shape"/>
</filter>
<clipPath id="clip0_10_54">
<rect x="20" y="20" width="48" height="48" rx="4" fill="white"/>
</clipPath>
</defs>
</svg>
